<?xml version="1.0" encoding="UTF-8"?> <svg xmlns="http://www.w3.org/2000/svg" width="300" height="283" viewBox="0 0 300 283" fill="none"><rect x="0.5" y="0.5" width="299" height="281.983" rx="23.5" fill="white"></rect><path d="M196.914 117.909C202.844 121.389 206.11 125.235 206.915 129.668H206.93C213.153 128.77 221.235 129.424 224.749 131.209L228 132.849L227.444 133.713C226.433 135.298 226.082 135.808 225.935 135.996C220.152 144.352 208.892 144.408 203.664 144.33C190.369 168.634 161.977 182 123.614 182C105.926 182 92.367 177.888 83.318 169.787C71.4137 159.126 71.3991 145.25 72.3947 140.806L72.5997 139.886H125.561H178.523C184.058 139.975 188.216 138.789 190.325 137.925C188.216 135.486 187.543 132.694 187.323 131.142C186.84 126.72 188.304 122.099 191.218 118.774L193.502 116.192L196.914 117.909Z" fill="#1D63ED"></path><path d="M141.185 100H157.292V111.083H141.185V100Z" fill="#1D63ED"></path><path d="M141.185 113.299H157.292V124.382H141.185V113.299Z" fill="#1D63ED"></path><path d="M122.15 113.299H138.256V124.382H122.15V113.299Z" fill="#1D63ED"></path><path d="M103.115 113.299H119.221V124.382H103.115V113.299Z" fill="#1D63ED"></path><path d="M84.0794 126.598H100.186V137.681H84.0794V126.598Z" fill="#1D63ED"></path><path d="M103.115 126.598H119.221V137.681H103.115V126.598Z" fill="#1D63ED"></path><path d="M122.15 126.598H138.256V137.681H122.15V126.598Z" fill="#1D63ED"></path><path d="M141.185 126.598H157.292V137.681H141.185V126.598Z" fill="#1D63ED"></path><path d="M160.22 126.598H176.327V137.681H160.22V126.598Z" fill="#1D63ED"></path><rect x="0.5" y="0.5" width="299" height="281.983" rx="23.5" stroke="#E1E2E6"></rect></svg> 